<svg xmlns="http://www.w3.org/2000/svg" viewBox="0 0 77.98 100.29"><defs><style>.a{fill:#bebd00;}.b{fill:#fff;}</style></defs><path class="a" d="M78 35.57V48H65.61V35.57z"/><path class="b" d="M28.34 0a15.47 15.47 0 0 1 5.82 1 13.43 13.43 0 0 1 4.44 2.9 12.45 12.45 0 0 1 2.82 4.2 13.49 13.49 0 0 1 1 5.15 14.45 14.45 0 0 1-1.78 7.33 11.2 11.2 0 0 1-5.82 4.71v.14A8.14 8.14 0 0 1 38 27.07a9.13 9.13 0 0 1 2.09 2.62 12.22 12.22 0 0 1 1.2 3.31 29.29 29.29 0 0 1 .5 3.63q.07 1.15.14 2.69t.24 3.16a20.94 20.94 0 0 0 .54 3.06 7 7 0 0 0 1.1 2.46H33.25a18.59 18.59 0 0 1-1.08-5.45q-.2-3.16-.61-6.05a9.55 9.55 0 0 0-2.27-5.5q-1.75-1.75-5.72-1.75H13V48H2.45V0zm-3.76 21.72A8 8 0 0 0 30 20.11q1.82-1.61 1.82-5.25T30 9.78a8.11 8.11 0 0 0-5.42-1.58H13v13.52zM59.35 0v48H48.79V0zM11.1 87.37a7.62 7.62 0 0 0 2.32 2.72 10 10 0 0 0 3.4 1.55 16.06 16.06 0 0 0 4 .5 20.9 20.9 0 0 0 3-.24 10.51 10.51 0 0 0 3-.91 6.6 6.6 0 0 0 2.35-1.85 4.64 4.64 0 0 0 .94-3A4.22 4.22 0 0 0 29 83a9.88 9.88 0 0 0-3.26-2 32.62 32.62 0 0 0-4.57-1.41q-2.56-.61-5.18-1.35a45.47 45.47 0 0 1-5.25-1.65 18 18 0 0 1-4.57-2.52 11.87 11.87 0 0 1-3.26-3.87 11.73 11.73 0 0 1-1.24-5.62 12.58 12.58 0 0 1 1.53-6.43 14.31 14.31 0 0 1 4.14-4.54 18 18 0 0 1 5.78-2.69 24.68 24.68 0 0 1 6.45-.92 30.6 30.6 0 0 1 7.23.84 18.08 18.08 0 0 1 6.2 2.77 13.8 13.8 0 0 1 4.27 4.81 14.75 14.75 0 0 1 1.58 7.1H28.59a8.52 8.52 0 0 0-.91-3.52 6 6 0 0 0-2.05-2.22 8.68 8.68 0 0 0-2.93-1.14 18 18 0 0 0-3.6-.34 12.45 12.45 0 0 0-2.56.27 6.85 6.85 0 0 0-2.32.94 5.82 5.82 0 0 0-1.71 1.68 4.51 4.51 0 0 0-.67 2.56 4.31 4.31 0 0 0 .54 2.25 4.79 4.79 0 0 0 2.12 1.6 26.93 26.93 0 0 0 4.37 1.48q2.79.74 7.3 1.88 1.34.27 3.73 1a17.94 17.94 0 0 1 4.74 2.25 14.35 14.35 0 0 1 4.07 4.14A11.77 11.77 0 0 1 40.42 85a14.68 14.68 0 0 1-1.28 6.12 13.29 13.29 0 0 1-3.8 4.88 18.25 18.25 0 0 1-6.25 3.19 29.56 29.56 0 0 1-8.64 1.14 30.4 30.4 0 0 1-7.7-1 19.37 19.37 0 0 1-6.59-3.06 15.1 15.1 0 0 1-4.54-5.31A15.85 15.85 0 0 1 0 83.27h10.23a8.8 8.8 0 0 0 .87 4.1zM78 51.19v8.88H54.44v10.29h22.11v8.2H54.44v11.77H78v8.88H43.88v-48z"/></svg>
